<svg width="19" height="18" viewBox="0 0 19 18" fill="none" xmlns="http://www.w3.org/2000/svg">
<path d="M9.5 0C7.62108 0 5.78435 0.527841 4.22209 1.51677C2.65982 2.50571 1.44218 3.91131 0.723149 5.55585C0.0041162 7.20038 -0.184015 9.00998 0.182544 10.7558C0.549104 12.5016 1.45389 14.1053 2.78249 15.364C4.11109 16.6226 5.80383 17.4798 7.64665 17.8271C9.48946 18.1743 11.3996 17.9961 13.1355 17.3149C14.8714 16.6337 16.3551 15.4802 17.399 14.0001C18.4428 12.5201 19 10.78 19 9C19 7.8181 18.7543 6.64778 18.2769 5.55585C17.7994 4.46392 17.0997 3.47177 16.2175 2.63604C15.3354 1.80031 14.2881 1.13738 13.1355 0.685084C11.9829 0.232792 10.7476 0 9.5 0ZM9.5 16.2C7.99686 16.2 6.52748 15.7777 5.27767 14.9866C4.02786 14.1954 3.05375 13.0709 2.47852 11.7553C1.90329 10.4397 1.75279 8.99201 2.04604 7.59535C2.33928 6.19868 3.06311 4.91577 4.12599 3.90883C5.18887 2.90189 6.54306 2.21616 8.01732 1.93835C9.49157 1.66053 11.0197 1.80312 12.4084 2.34807C13.7971 2.89302 14.9841 3.81586 15.8192 4.99989C16.6543 6.18393 17.1 7.57597 17.1 9C17.1 10.9096 16.2993 12.7409 14.874 14.0912C13.4487 15.4414 11.5156 16.2 9.5 16.2ZM12.445 9.567L10.45 8.478V4.5C10.45 4.2613 10.3499 4.03239 10.1718 3.8636C9.99359 3.69482 9.75196 3.6 9.5 3.6C9.24805 3.6 9.00641 3.69482 8.82825 3.8636C8.65009 4.03239 8.55 4.2613 8.55 4.5V9C8.55 9 8.55 9.072 8.55 9.108C8.55563 9.17001 8.57166 9.23077 8.5975 9.288C8.61707 9.34139 8.64254 9.39268 8.6735 9.441C8.6995 9.49215 8.73136 9.54044 8.7685 9.585L8.9205 9.702L9.006 9.783L11.476 11.133C11.6208 11.2107 11.7846 11.2511 11.951 11.25C12.1613 11.2514 12.3662 11.1866 12.5335 11.0658C12.7008 10.945 12.8211 10.775 12.8754 10.5825C12.9297 10.39 12.9151 10.1858 12.8338 10.002C12.7524 9.81826 12.609 9.66524 12.426 9.567H12.445Z" fill="#73005C" fill-opacity="0.68"/>
</svg>
