<svg width="18" height="20" viewBox="0 0 18 20" fill="none" xmlns="http://www.w3.org/2000/svg">
<path d="M17.1826 14.8201L15.3081 12.695C14.9049 12.2707 14.3962 11.9896 13.8476 11.8878C13.2989 11.786 12.7353 11.8681 12.2291 12.1236L11.4141 11.2214C12.3745 9.8009 12.8131 8.03038 12.6416 6.26627C12.4702 4.50217 11.7013 2.87546 10.4899 1.71363C9.27848 0.551796 7.71442 -0.0588983 6.11257 0.00448245C4.51073 0.0678632 2.99005 0.800613 1.85666 2.05523C0.723261 3.30984 0.0613065 4.99315 0.00404937 6.76631C-0.0532078 8.53947 0.498484 10.2708 1.54807 11.6118C2.59765 12.9528 4.06718 13.8038 5.66085 13.9937C7.25452 14.1835 8.85397 13.698 10.1372 12.6348L10.9432 13.527C10.6852 14.088 10.5927 14.7245 10.6788 15.3467C10.7649 15.9689 11.0253 16.5456 11.4232 16.9954L13.343 19.1205C13.8524 19.6837 14.5429 20 15.2628 20C15.9827 20 16.6732 19.6837 17.1826 19.1205C17.4414 18.8404 17.647 18.506 17.7873 18.1367C17.9277 17.7675 18 17.3709 18 16.9703C18 16.5697 17.9277 16.1731 17.7873 15.8039C17.647 15.4347 17.4414 15.1002 17.1826 14.8201V14.8201ZM9.50335 10.5698C8.86966 11.2695 8.06285 11.7456 7.18484 11.938C6.30684 12.1304 5.39702 12.0304 4.57033 11.6506C3.74363 11.2709 3.03715 10.6285 2.54013 9.80453C2.04311 8.98056 1.77784 8.01203 1.77784 7.02126C1.77784 6.0305 2.04311 5.06196 2.54013 4.238C3.03715 3.41403 3.74363 2.77161 4.57033 2.39188C5.39702 2.01216 6.30684 1.91216 7.18484 2.10453C8.06285 2.29689 8.86966 2.77299 9.50335 3.47268C9.92501 3.93827 10.2596 4.49136 10.4878 5.10028C10.7161 5.70921 10.8336 6.362 10.8336 7.02126C10.8336 7.68053 10.7161 8.33332 10.4878 8.94224C10.2596 9.55117 9.92501 10.1043 9.50335 10.5698V10.5698ZM15.9057 17.657C15.8216 17.7509 15.7214 17.8255 15.6111 17.8764C15.5007 17.9273 15.3823 17.9535 15.2628 17.9535C15.1432 17.9535 15.0249 17.9273 14.9145 17.8764C14.8042 17.8255 14.704 17.7509 14.6198 17.657L12.7 15.5318C12.6151 15.4387 12.5478 15.3278 12.5018 15.2056C12.4558 15.0835 12.4322 14.9524 12.4322 14.8201C12.4322 14.6878 12.4558 14.5568 12.5018 14.4346C12.5478 14.3125 12.6151 14.2016 12.7 14.1084C12.7842 14.0144 12.8844 13.9399 12.9947 13.889C13.1051 13.8381 13.2234 13.8119 13.343 13.8119C13.4625 13.8119 13.5809 13.8381 13.6912 13.889C13.8016 13.9399 13.9017 14.0144 13.9859 14.1084L15.9057 16.2335C15.9906 16.3267 16.058 16.4376 16.104 16.5597C16.1499 16.6819 16.1736 16.8129 16.1736 16.9453C16.1736 17.0776 16.1499 17.2086 16.104 17.3308C16.058 17.4529 15.9906 17.5638 15.9057 17.657V17.657Z" fill="#AE76D0"/>
</svg>
